<svg width="20" height="21" viewBox="0 0 20 21" fill="none" xmlns="http://www.w3.org/2000/svg">
<g id="icon_line/External link">
<path id="Rectangle 14 (Stroke)" fill-rule="evenodd" clip-rule="evenodd" d="M5.83317 3.83317C4.45246 3.83317 3.33317 4.95246 3.33317 6.33317V14.6665C3.33317 16.0472 4.45246 17.1665 5.83317 17.1665H14.1665C15.5472 17.1665 16.6665 16.0472 16.6665 14.6665V11.3332C16.6665 10.8729 17.0396 10.4998 17.4998 10.4998C17.9601 10.4998 18.3332 10.8729 18.3332 11.3332V14.6665C18.3332 16.9677 16.4677 18.8332 14.1665 18.8332H5.83317C3.53198 18.8332 1.6665 16.9677 1.6665 14.6665V6.33317C1.6665 4.03198 3.53198 2.1665 5.83317 2.1665H9.1665C9.62674 2.1665 9.99984 2.5396 9.99984 2.99984C9.99984 3.46007 9.62674 3.83317 9.1665 3.83317H5.83317Z" fill="#F6F6F6"/>
<path id="Vector (Stroke)" fill-rule="evenodd" clip-rule="evenodd" d="M18.0891 2.41058C18.4145 2.73602 18.4145 3.26366 18.0891 3.58909L10.5891 11.0891C10.2637 11.4145 9.73602 11.4145 9.41058 11.0891C9.08514 10.7637 9.08514 10.236 9.41058 9.91058L16.9106 2.41058C17.236 2.08514 17.7637 2.08514 18.0891 2.41058Z" fill="#F6F6F6"/>
<path id="Vector (Stroke)_2" fill-rule="evenodd" clip-rule="evenodd" d="M11.6665 2.99984C11.6665 2.5396 12.0396 2.1665 12.4998 2.1665H17.4998C17.9601 2.1665 18.3332 2.5396 18.3332 2.99984V7.99984C18.3332 8.46007 17.9601 8.83317 17.4998 8.83317C17.0396 8.83317 16.6665 8.46007 16.6665 7.99984V3.83317H12.4998C12.0396 3.83317 11.6665 3.46007 11.6665 2.99984Z" fill="#F6F6F6"/>
</g>
</svg>
